<svg xmlns="http://www.w3.org/2000/svg" viewBox="0 0 512 512">
  <defs>
    <linearGradient id="bg" x1="64" y1="48" x2="440" y2="464" gradientUnits="userSpaceOnUse">
      <stop stop-color="#132033"/>
      <stop offset=".58" stop-color="#0f172a"/>
      <stop offset="1" stop-color="#063425"/>
    </linearGradient>
    <linearGradient id="blue" x1="88" y1="160" x2="430" y2="348" gradientUnits="userSpaceOnUse">
      <stop stop-color="#7cc0ff"/>
      <stop offset="1" stop-color="#1769e0"/>
    </linearGradient>
    <linearGradient id="green" x1="124" y1="372" x2="386" y2="156" gradientUnits="userSpaceOnUse">
      <stop stop-color="#48d39c"/>
      <stop offset="1" stop-color="#0f9f6e"/>
    </linearGradient>
  </defs>

  <rect width="512" height="512" rx="104" fill="url(#bg)"/>
  <rect x="116" y="124" width="280" height="264" rx="54" fill="#f8fbff"/>
  <rect x="150" y="154" width="212" height="204" rx="34" fill="#eaf2ff"/>

  <rect x="178" y="258" width="34" height="70" rx="11" fill="#9bc8ff"/>
  <rect x="232" y="222" width="34" height="106" rx="11" fill="#5ea4ff"/>
  <rect x="286" y="184" width="34" height="144" rx="11" fill="#1769e0"/>
  <rect x="340" y="146" width="34" height="182" rx="11" fill="#0f9f6e"/>

  <path d="M151 304c45-58 78-63 113-28 28 28 61 12 101-58" fill="none" stroke="url(#green)" stroke-width="34" stroke-linecap="round" stroke-linejoin="round"/>

  <g transform="rotate(-27 256 256)">
    <rect x="78" y="224" width="356" height="64" rx="32" fill="#0b1220"/>
    <rect x="32" y="196" width="64" height="120" rx="20" fill="url(#blue)"/>
    <rect x="416" y="196" width="64" height="120" rx="20" fill="url(#blue)"/>
    <rect x="6" y="218" width="50" height="76" rx="18" fill="#6aa6ff"/>
    <rect x="456" y="218" width="50" height="76" rx="18" fill="#6aa6ff"/>
  </g>
</svg>
